<?xml version="1.0" standalone="no"?>
<!DOCTYPE svg PUBLIC "-//W3C//DTD SVG 20010904//EN"
 "http://www.w3.org/TR/2001/REC-SVG-20010904/DTD/svg10.dtd">
<svg version="1.0" xmlns="http://www.w3.org/2000/svg"
 width="180.000000pt" height="180.000000pt" viewBox="0 0 180.000000 180.000000"
 preserveAspectRatio="xMidYMid meet">

<g transform="translate(0.000000,180.000000) scale(0.100000,-0.100000)"
fill="#000000" stroke="none">
<path d="M1260 1739 c-14 -5 -68 -20 -120 -35 -52 -15 -117 -38 -144 -51 -56
-29 -126 -97 -150 -148 -19 -38 -23 -40 -60 -24 -21 10 -29 7 -60 -17 -23 -19
-32 -32 -26 -38 13 -13 13 -42 -2 -65 -18 -29 1 -61 44 -76 34 -11 39 -10 58
9 11 12 20 33 20 47 0 30 10 45 35 53 11 3 31 27 44 53 58 113 100 145 279
214 86 33 136 64 127 80 -7 10 -11 10 -45 -2z"/>
<path d="M1539 1743 c-28 -4 -42 -31 -29 -53 5 -8 22 -10 51 -6 104 14 149 18
149 12 0 -3 -30 -37 -66 -75 -90 -94 -186 -142 -288 -146 -81 -2 -136 -25
-136 -55 0 -24 7 -25 53 -5 20 8 52 15 70 15 72 0 203 58 302 133 58 44 155
140 155 152 0 25 -165 43 -261 28z"/>
<path d="M1342 1723 c-5 -10 -12 -33 -16 -51 -13 -73 -92 -141 -257 -224 -103
-52 -120 -65 -99 -78 21 -13 80 0 158 36 41 19 76 34 78 34 14 0 117 85 157
130 40 45 47 58 47 94 -1 45 -18 76 -43 76 -9 0 -20 -8 -25 -17z"/>
<path d="M1550 1658 c-78 -30 -114 -52 -118 -71 -6 -31 27 -29 95 5 38 19 80
38 96 41 18 5 27 14 27 27 0 26 -28 25 -100 -2z"/>
<path d="M343 1558 c-113 -48 -124 -55 -103 -68 18 -11 60 -4 130 23 73 27
201 35 219 13 12 -14 9 -16 -25 -16 -22 0 -63 -3 -92 -7 -47 -5 -53 -8 -50
-27 3 -20 9 -21 116 -21 109 0 112 1 112 22 0 19 4 21 35 16 32 -5 35 -4 35
20 0 41 -74 70 -210 82 -60 5 -72 3 -167 -37z"/>
<path d="M1045 1548 c-82 -60 -107 -86 -103 -107 5 -23 34 -25 56 -3 11 11 46
39 78 62 70 50 85 67 77 86 -9 24 -35 15 -108 -38z"/>
<path d="M203 1445 c-8 -21 20 -50 73 -74 34 -16 64 -21 131 -21 71 -1 84 -3
68 -12 -11 -6 -36 -25 -56 -43 -49 -43 -135 -62 -199 -42 -27 9 -39 16 -30 19
8 3 34 11 56 18 57 17 66 24 58 44 -8 20 -34 18 -132 -11 -45 -12 -52 -18 -47
-34 5 -15 1 -19 -19 -19 -37 0 -32 16 14 42 40 23 55 42 44 59 -9 16 -50 10
-77 -11 -25 -20 -91 -110 -85 -115 19 -14 89 -25 169 -25 54 0 100 -4 103 -9
3 -5 -5 -16 -18 -24 -13 -9 -39 -40 -58 -69 -68 -104 -97 -209 -97 -348 -1
-277 119 -484 349 -600 75 -38 145 -49 310 -50 311 0 502 74 636 246 76 97 98
161 109 310 7 97 -3 196 -36 328 -39 160 -123 281 -229 330 -45 21 -70 26
-141 26 -65 0 -90 -4 -99 -15 -7 -8 -17 -15 -22 -15 -5 0 -22 -9 -36 -21 l-27
-21 30 9 c17 4 75 8 130 8 105 0 131 -8 201 -61 77 -57 163 -249 184 -410 34
-272 -74 -488 -295 -588 -167 -76 -408 -107 -550 -71 -149 38 -280 112 -337
188 -76 103 -128 268 -130 412 -3 152 36 261 121 344 79 77 150 104 305 116
100 9 87 23 -24 27 -47 2 -84 7 -84 13 1 5 17 17 35 27 19 10 36 28 39 40 4
16 21 28 63 43 109 39 97 67 -17 41 -37 -9 -107 -16 -156 -16 -74 0 -99 4
-146 25 -66 29 -73 30 -81 10z"/>
<path d="M628 1132 c-14 -21 -37 -69 -50 -108 -21 -62 -23 -86 -22 -249 1
-167 2 -185 26 -252 14 -40 37 -92 51 -115 43 -74 167 -179 167 -141 0 3 -25
32 -56 64 -37 40 -68 87 -96 146 -40 86 -42 91 -46 213 -2 69 0 171 6 228 8
88 14 113 46 173 20 39 36 73 36 75 0 2 -8 4 -17 4 -10 0 -30 -17 -45 -38z"/>
</g>
</svg>
